<?xml version="1.0" encoding="UTF-8"?><svg id="Layer_1" xmlns="http://www.w3.org/2000/svg" viewBox="0 0 283.4646 283.4646"><g id="circle"><ellipse cx="142.0002" cy="246.3661" rx="25" ry="17" fill="none" stroke="#1867c0" stroke-miterlimit="10" stroke-width="8"/><line x1="148.0002" y1="230.3661" x2="148.0002" y2="262.3661" fill="none" stroke="#1867c0" stroke-miterlimit="10" stroke-width="4"/><line x1="148.0002" y1="246.3661" x2="164.0002" y2="246.3661" fill="none" stroke="#1867c0" stroke-miterlimit="10" stroke-width="4"/><path d="m169.3163,240.2469c-3.9912-8.2502-14.6693-13.8809-27.3159-13.8809s-23.6045,5.9023-27.4883,14.2656c-47.021-12.2324-80.7798-55.6162-80.7798-104.5332,0-59.5513,48.4487-108,108-108,9.5309,0,18.775,1.2467,27.584,3.5755v-8.2528c-8.8448-2.1656-18.0812-3.3227-27.584-3.3227-63.9624,0-116,52.0376-116,116,0,26.5166,9.1797,52.4404,25.8481,72.998,16.4263,20.2588,39.4106,34.5352,64.7197,40.1973l4.1099.9199.707-4.1514c1.1167-6.5586,10.29-11.6963,20.8833-11.6963,10.5278,0,19.6938,5.1045,20.8687,11.6221l.7432,4.124,4.085-.9346c.543-.1242,1.0784-.2748,1.6191-.4069v-8.5238Z" fill="#1867c0"/><path d="m141.7323,20.0985c-63.9624,0-116,52.0376-116,116,0,26.5166,9.1797,52.4404,25.8481,72.998,13.3439,16.4572,31.0156,28.9664,50.7455,36.1169.0942-2.7873.5194-5.4974,1.2567-8.0934-41.2292-15.6667-69.8504-55.9889-69.8504-101.0215,0-60.3068,49.6859-109.2276,110.2719-107.9765,58.1529,1.2008,106.3693,51.0592,105.7212,109.2209-.4888,43.8603-26.7905,81.9803-66.108,98.3531-1.7979.7487-2.8219,2.6481-2.4723,4.564.0774.4241.1468.8506.2081,1.2796.2522,1.7643,2.0858,2.8298,3.738,2.1614,18.217-7.3703,34.4961-19.3628,46.9596-34.8065,16.5615-20.5215,25.6816-46.374,25.6816-72.7959,0-63.9624-52.0371-116-116-116Z" fill="#1867c0"/></g><g id="icon"><path d="m136.8218,205.4883c-.4175.2783-.8486.4521-1.2925.5225-.4438.0693-.8711.0518-1.2798-.0527-.4092-.1045-.7925-.2871-1.1489-.5479-.3574-.2617-.6489-.583-.875-.9668l13.3193-20.0049c.418-.2617.8525-.3916,1.3057-.3916.4521,0,.8701.0957,1.2539.2871.3828.1914.709.4697.9795.8359.2695.3652.4219.792.457,1.2793l-12.7192,19.0391Z" fill="#1867c0"/><path d="m122.6758,191.4521l.209-4.3359,9.6113-4.4395c.2261.0176.5.1963.8223.5352.3223.3398.605.7363.8491,1.1885.2437.4531.4175.9053.522,1.3584s.061.8008-.1304,1.0439l-5.8242,2.5596,5.4585,2.7168c.0693.2441.1001.6182.0913,1.123s-.0913,1.0098-.248,1.5146-.3916.9531-.7051,1.3447-.7314.5967-1.2534.6133l-9.4023-5.2227Z" fill="#1867c0"/><path d="m149.915,207.6748c-.3486-.0166-.6494-.1172-.9014-.2998-.2529-.1826-.4658-.418-.6396-.7051-.1748-.2871-.3096-.6045-.4053-.9531s-.165-.6924-.209-1.0322c-.043-.3389-.0605-.6523-.0518-.9395.0088-.2881.0391-.5098.0908-.666l5.459-2.7168-5.8242-2.5596c-.1914-.2432-.2354-.5908-.1309-1.0439s.2783-.9053.5225-1.3584c.2441-.4521.5225-.8486.8359-1.1885.3135-.3389.5918-.5176.8359-.5352l9.6104,4.4395.209,4.3359-9.4014,5.2227Z" fill="#1867c0"/></g><g id="Asianna"><path d="m60.7532,165.1957v-72.9923c0-13.5171,10.8137-22.844,26.2233-22.844,15.2741,0,26.0878,9.4621,26.0878,22.844v72.9923h-13.3819v-11.6246c0-7.1641-4.596-10.2733-12.7059-10.2733s-12.8415,3.1091-12.8415,10.2733v11.6246h-13.3819Zm38.9292-72.1812c0-7.1641-4.596-10.2733-12.7059-10.2733s-12.8415,3.1091-12.8415,10.2733v39.4696c3.6495-1.6218,8.1105-2.5682,12.8415-2.5682s9.0564.9464,12.7059,2.5682v-39.4696Z" fill="#1867c0"/><path d="m130.8732,129.8379c-7.7084,0-13.0924,4.9587-13.0924,12.059v23.2988h8.4212v-23.0403c0-1.8142.5309-3.8966,4.6712-3.8966,4.0834,0,4.6071,2.0824,4.6071,3.8966v23.0403h8.4212v-23.2988c0-6.9873-5.4793-12.059-13.0283-12.059Z" fill="#1867c0"/><path d="m161.7114,129.8379c-7.7084,0-13.0924,4.9587-13.0924,12.059v23.2988h8.4212v-23.0403c0-1.8142.5309-3.8966,4.6712-3.8966,4.0834,0,4.6071,2.0824,4.6071,3.8966v23.0403h8.4212v-23.2988c0-6.9873-5.4793-12.059-13.0283-12.059Z" fill="#1867c0"/><rect x="170.4003" y="165.1736" width="4.3364" height=".022" fill="#1867c0"/><path d="m196.6235,69.3594c-15.4096,0-26.2233,9.3268-26.2233,22.8439v32.7949c5.5396.6854,9.5015,5.9411,9.5015,12.2722v27.9033h-.0026v.022h3.8829v-11.6245c0-7.1642,4.7314-10.2733,12.8414-10.2733s12.7059,3.1091,12.7059,10.2733v11.6245h13.3819v-72.9923c0-13.3818-10.8137-22.8439-26.0878-22.8439Zm12.7059,63.1248c-3.6495-1.6218-7.975-2.5682-12.7059-2.5682s-9.1919.9464-12.8414,2.5682v-39.4697c0-7.1641,4.7314-10.2733,12.8414-10.2733s12.7059,3.1091,12.7059,10.2733v39.4697Z" fill="#1867c0"/><path d="m121.5448,75.8757s-1.7024-1.5748-2.524-2.3c-.2191-.1934-.1553-.5234.1253-.6356.5633-.2253,1.4114-.4797,1.9762-.4797.845,0,5.0702.3795,6.3377-.3795,1.0914-.6535,3.5019-2.8487,4.4061-2.9324.0777-.0072.1398.0493.1655.1156.3133.8085,1.7661,1.6784,1.7661,1.6784,0,0,2.9576-.759,3.3801,0s.845,4.5537,1.2675,4.5537,4.2252.3795,4.2252.759-2.9576,2.6563-2.9576,2.6563c0,0-1.2675,0-1.9013.5692-.5975.5367-.6338,1.7076-1.0563,2.0871s-2.1126,0-2.1126.759-1.2675,4.9332-.845,5.3127,1.2675.3795,2.1126,1.5179,7.1828,6.8306,7.6053,7.21,2.1126,2.2769,2.5351,3.4153.845,5.3127,1.2675,5.6921,1.6901,2.2769,1.6901,3.0358-.845.3795-.845,1.1384,0,3.7948-.845,4.5537-3.8026,3.4153-5.4927,3.7948-3.8026,0-3.8026.3795-1.6901,3.7948-2.1126,3.7948-2.9576.3795-2.9576.759-.4225,1.5179-.845,1.8974-2.5351.3795-2.5351,0,1.8075-4.3734,1.9013-4.7434c.0731-.2884-3.8026-1.5179-3.3801-1.8974.6338-.5692,2.5351-1.1384,3.5914-1.7076.2021-.1089,2.6077.022,3.1689-.5692.7627-.8035-.845-2.2769-.4225-2.6563,1.1169-.7091,4.9861-1.5631,5.9152-2.2769,1.1269-.8657.1024-1.0048,1.2675-3.84.2752-.6695-.6123-1.3987-.9399-2.0049s.5174-5.1599.5174-5.1599l-6.3377-7.5895s-2.5351-3.0358-4.2252-4.5537-4.6477-1.8974-5.2815-2.4666c-.2113-.1897,0-1.1384.4225-1.5179s3.3801-.759,4.2252-.759c.3697,0,.608-1.5774.0425-2.5172-.6359-.5711-2.3663-1.8467-2.3663-1.8467-.4225,0-2.3238,1.7076-2.3238,1.7076,0,0-3.1689-2.4666-3.3801-2.6563s-.4225-1.8974-.4225-1.8974Z" fill="#ffb703"/><circle cx="155.9521" cy="68.5758" r="7.5686" fill="#3cb878"/><path d="m161.6368,73.2448c-.465.5661-.9971,1.0455-1.5758,1.4338-1.181.7942-2.5536,1.2148-3.94,1.2444-1.6898.0362-3.401-.5083-4.8096-1.6652-1.4897-1.2236-2.3735-2.912-2.6132-4.6831-.186-1.3724.0148-2.7937.6198-4.0874.2542-.5454.5808-1.0683.9804-1.5549.4003-.4874.851-.911,1.3381-1.2664,1.1367-.8333,2.4731-1.3046,3.8361-1.3957.942-.0649,1.8968.0521,2.8083.3551.8313.2754,1.6264.7056,2.3429,1.2941.7976.6551,1.4207,1.4424,1.8644,2.3053.4397.8517.7036,1.7778.7865,2.7187.121,1.3586-.1363,2.7506-.7855,4.0066-.2329.4521-.5168.8861-.8525,1.2948Z" fill="none" stroke="#fff" stroke-miterlimit="10" stroke-width=".5"/><path d="m161.6368,73.2448c-.465.5661-.9971,1.0455-1.5758,1.4338-1.181.7942-2.5536,1.2148-3.94,1.2444-.6756-.2899-1.3357-.6277-1.9775-1.015-.4608-.2769-.9111-.5795-1.3501-.9071-.207-.1542-.4116-.3144-.6132-.4799-.0528-.0433-.1047-.086-.1568-.1301-.2549-.2146-.501-.4352-.739-.6623-.4134-.3909-.8018-.8009-1.1655-1.225-.5257-.6137-.9994-1.2586-1.4207-1.9289-.186-1.3724.0148-2.7937.6198-4.0874.2542-.5454.5808-1.0683.9804-1.5549.4003-.4874.851-.911,1.3381-1.2664,1.1367-.8333,2.4731-1.3046,3.8361-1.3957.942-.0649,1.8968.0521,2.8083.3551.8313.2754,1.6264.7056,2.3429,1.2941.7976.6551,1.4207,1.4424,1.8644,2.3053.4397.8517.7036,1.7778.7865,2.7187.121,1.3586-.1363,2.7506-.7855,4.0066-.2329.4521-.5168.8861-.8525,1.2948Z" fill="none" stroke="#fff" stroke-miterlimit="10" stroke-width=".5"/><path d="m161.6368,73.2448c-.465.5661-.9971,1.0455-1.5758,1.4338-1.181.7942-2.5536,1.2148-3.94,1.2444-1.6898.0362-3.401-.5083-4.8096-1.6652-1.4897-1.2236-2.3735-2.912-2.6132-4.6831-.186-1.3724.0148-2.7937.6198-4.0874.2542-.5454.5808-1.0683.9804-1.5549.4003-.4874.851-.911,1.3381-1.2664,1.1367-.8333,2.4731-1.3046,3.8361-1.3957.942-.0649,1.8968.0521,2.8083.3551.8313.2754,1.6264.7056,2.3429,1.2941.7976.6551,1.4207,1.4424,1.8644,2.3053.4397.8517.7036,1.7778.7865,2.7187.121,1.3586-.1363,2.7506-.7855,4.0066-.2329.4521-.5168.8861-.8525,1.2948Z" fill="none" stroke="#fff" stroke-miterlimit="10" stroke-width=".5"/><ellipse cx="155.9676" cy="68.5885" rx="7.3362" ry="4.5852" transform="translate(3.9735 145.5825) rotate(-50.6029)" fill="none" stroke="#fff" stroke-miterlimit="10" stroke-width=".5"/><ellipse cx="155.9676" cy="68.5885" rx="7.3362" ry="1.8341" transform="translate(3.9735 145.5825) rotate(-50.6029)" fill="none" stroke="#fff" stroke-miterlimit="10" stroke-width=".5"/><path d="m162.4883,65.2246c-.2394-.0055-.4772-.0306-.7139-.0748-.4197-.0797-.8311-.2211-1.2204-.4261-.2588-.1361-.5081-.3013-.7427-.494-.0528-.0433-.1042-.0882-.1542-.1333-.2731-.2454-.5077-.5185-.7043-.8105-.2247-.3349-.3997-.6949-.5227-1.0701-.0639-.1935-.1129-.3907-.1492-.5906.8313.2754,1.6264.7056,2.3429,1.2941.7976.6551,1.4207,1.4424,1.8644,2.3053Z" fill="none" stroke="#fff" stroke-miterlimit="10" stroke-width=".5"/><path d="m163.2748,67.9434c-.5931.0575-1.1927.041-1.7846-.0522-.7616-.1179-1.5107-.36-2.2146-.7311-.4214-.2222-.8278-.49-1.2104-.8043-.0528-.0433-.1041-.0868-.1555-.1317-.4265-.3701-.7992-.7816-1.1154-1.2234-.457-.6364-.7992-1.3355-1.0215-2.0666-.166-.5411-.2666-1.101-.3001-1.6639.942-.0649,1.8968.0521,2.8083.3551.8313.2754,1.6264.7056,2.3429,1.2941.7976.6551,1.4207,1.4424,1.8644,2.3053.4397.8517.7036,1.7778.7865,2.7187Z" fill="none" stroke="#fff" stroke-miterlimit="10" stroke-width=".5"/><path d="m162.4893,71.95c-1.0057-.0085-2.0117-.153-2.9907-.4363-.9083-.2635-1.7921-.6451-2.6285-1.1502-.4585-.275-.9018-.5877-1.327-.9369-.0528-.0433-.1049-.0874-.1555-.1317-.4746-.403-.906-.8378-1.2945-1.2992-.6364-.7535-1.158-1.5761-1.5632-2.4442-.4299-.9214-.7293-1.8925-.8934-2.8856,1.1367-.8333,2.4731-1.3046,3.8361-1.3957.942-.0649,1.8968.0521,2.8083.3551.8313.2754,1.6264.7056,2.3429,1.2941.7976.6551,1.4207,1.4424,1.8644,2.3053.4397.8517.7036,1.7778.7865,2.7187.121,1.3586-.1363,2.7506-.7855,4.0066Z" fill="none" stroke="#fff" stroke-miterlimit="10" stroke-width=".5"/><path d="m161.6368,73.2448c-.465.5661-.9971,1.0455-1.5758,1.4338-1.0371-.1886-2.0605-.4965-3.0479-.9237-.7756-.3351-1.5282-.7449-2.2497-1.2294-.3744-.2521-.7398-.5232-1.0957-.8155-.0528-.0433-.1055-.0867-.1568-.1301-.4066-.3445-.7889-.7059-1.1467-1.0842-.609-.6439-1.1474-1.3353-1.6133-2.0621-.5974-.931-1.0759-1.9201-1.4329-2.9463.2542-.5454.5808-1.0683.9804-1.5549.4003-.4874.851-.911,1.3381-1.2664,1.1367-.8333,2.4731-1.3046,3.8361-1.3957.942-.0649,1.8968.0521,2.8083.3551.8313.2754,1.6264.7056,2.3429,1.2941.7976.6551,1.4207,1.4424,1.8644,2.3053.4397.8517.7036,1.7778.7865,2.7187.121,1.3586-.1363,2.7506-.7855,4.0066-.2329.4521-.5168.8861-.8525,1.2948Z" fill="none" stroke="#fff" stroke-miterlimit="10" stroke-width=".5"/><path d="m155.9521,79.1444c-5.6441,0-10.2413-4.4278-10.5397-9.9975h-13.4672c.1027.0076.1158.1939.1625.2776.4225.759,1.6901,1.5179,1.6901,1.5179,0,0,2.9576-.759,3.3802,0,.4225.7589.845,4.5537,1.2675,4.5537s4.2252.3795,4.2252.7589-2.9576,2.6564-2.9576,2.6564c0,0-1.2676,0-1.9014.5692-.5975.5367-.6337,1.7077-1.0563,2.0872s-2.1125,0-2.1125.759-1.2676,4.9331-.8451,5.3126c.4225.3795,1.2676.3795,2.1126,1.5179s7.1827,6.8306,7.6053,7.21c.4225.3795,2.1125,2.2769,2.5351,3.4153.4225,1.1384.845,5.3126,1.2675,5.6921.4225.3795,1.6901,2.2769,1.6901,3.0358s-.845.3795-.845,1.1384,0,3.7947-.845,4.5537-3.8026,3.4153-5.4927,3.7947c-1.6901.3795-3.8027,0-3.8027.3795s-1.6901,3.7947-2.1125,3.7947-2.9576.3795-2.9576.759-.4225,1.5179-.8451,1.8973c-.2102.1888-.8557.2837-1.4342.2846h29.0667v-46.6794c-1.1774.4529-2.4512.7113-3.7881.7113Z" fill="#3cb878"/></g></svg>