<?xml version="1.0" encoding="UTF-8"?>
<svg xmlns="http://www.w3.org/2000/svg" xmlns:xlink="http://www.w3.org/1999/xlink" width="128px" height="px" viewBox="0 0 128 128" version="1.1">
<g id="surface1">
<path style=" stroke:none;fill-rule:nonzero;fill:rgb(19.215686%,47.058824%,77.647059%);fill-opacity:1;" d="M 12.5 0 L 115.5 0 C 122.402344 0 128 5.597656 128 12.5 L 128 115.5 C 128 122.402344 122.402344 128 115.5 128 L 12.5 128 C 5.597656 128 0 122.402344 0 115.5 L 0 12.5 C 0 5.597656 5.597656 0 12.5 0 Z M 12.5 0 "/>
<path style=" stroke:none;fill-rule:nonzero;fill:rgb(19.215686%,47.058824%,77.647059%);fill-opacity:1;" d="M 12.5 0 L 115.5 0 C 122.402344 0 128 5.597656 128 12.5 L 128 115.5 C 128 122.402344 122.402344 128 115.5 128 L 12.5 128 C 5.597656 128 0 122.402344 0 115.5 L 0 12.5 C 0 5.597656 5.597656 0 12.5 0 Z M 12.5 0 "/>
<path style=" stroke:none;fill-rule:evenodd;fill:rgb(100%,100%,100%);fill-opacity:1;" d="M 79.234375 101.855469 L 79.234375 114.371094 C 81.269531 115.414062 83.675781 116.195312 86.453125 116.71875 C 89.230469 117.238281 92.160156 117.5 95.238281 117.5 C 98.238281 117.5 101.085938 117.214844 103.785156 116.640625 C 106.484375 116.066406 108.851562 115.121094 110.886719 113.804688 C 112.921875 112.488281 114.53125 110.765625 115.71875 108.640625 C 116.90625 106.515625 117.5 103.890625 117.5 100.761719 C 117.5 98.492188 117.160156 96.503906 116.484375 94.796875 C 115.804688 93.089844 114.828125 91.570312 113.546875 90.242188 C 112.269531 88.910156 110.738281 87.71875 108.949219 86.660156 C 107.164062 85.605469 105.148438 84.609375 102.90625 83.671875 C 101.261719 82.992188 99.789062 82.332031 98.484375 81.695312 C 97.179688 81.054688 96.070312 80.402344 95.160156 79.738281 C 94.246094 79.074219 93.542969 78.371094 93.046875 77.628906 C 92.550781 76.882812 92.304688 76.042969 92.304688 75.105469 C 92.304688 74.246094 92.523438 73.46875 92.96875 72.777344 C 93.410156 72.085938 94.039062 71.492188 94.847656 71 C 95.65625 70.503906 96.644531 70.117188 97.820312 69.84375 C 98.992188 69.570312 100.296875 69.433594 101.730469 69.433594 C 102.777344 69.433594 103.878906 69.511719 105.039062 69.667969 C 106.199219 69.824219 107.367188 70.066406 108.539062 70.390625 C 109.714844 70.71875 110.855469 71.128906 111.964844 71.625 C 113.070312 72.121094 114.097656 72.691406 115.035156 73.34375 L 115.035156 61.652344 C 113.132812 60.921875 111.050781 60.378906 108.792969 60.027344 C 106.539062 59.675781 103.949219 59.5 101.027344 59.5 C 98.054688 59.5 95.238281 59.820312 92.578125 60.457031 C 89.917969 61.097656 87.574219 62.09375 85.554688 63.449219 C 83.53125 64.804688 81.933594 66.535156 80.761719 68.632812 C 79.585938 70.730469 79 73.242188 79 76.160156 C 79 79.890625 80.074219 83.070312 82.226562 85.703125 C 84.378906 88.335938 87.648438 90.566406 92.027344 92.390625 C 93.75 93.09375 95.355469 93.785156 96.839844 94.464844 C 98.328125 95.140625 99.613281 95.847656 100.695312 96.578125 C 101.777344 97.304688 102.632812 98.101562 103.257812 98.960938 C 103.882812 99.820312 104.195312 100.800781 104.195312 101.894531 C 104.195312 102.703125 104 103.453125 103.609375 104.144531 C 103.21875 104.835938 102.625 105.433594 101.828125 105.941406 C 101.035156 106.453125 100.042969 106.847656 98.855469 107.136719 C 97.667969 107.421875 96.28125 107.566406 94.691406 107.566406 C 91.976562 107.566406 89.289062 107.089844 86.628906 106.136719 C 83.96875 105.1875 81.503906 103.757812 79.234375 101.855469 Z M 58.195312 71.019531 L 74.25 71.019531 L 74.25 60.75 L 29.5 60.75 L 29.5 71.019531 L 45.476562 71.019531 L 45.476562 116.75 L 58.195312 116.75 Z M 58.195312 71.019531 "/>
</g>
</svg>
